# xmcd
#
# Track frame offsets:
# 150
# 13613
# 27376
# 40436
# 54242
# 67516
# 89703
# 103632
# 117304
# 130692
# 144117
# 165625
# 179127
# 193056
# 206778
# 220262
# 233882
# 247463
# 260836
# 274396
# 295899
# 310088
# 323682
# 336443
#
# Disc length: 4619 seconds
#
#
# Revision: 0
# Processed by: cddbd v1.5.2PL0 Copyright (c) Steve Scherf et al.
# Submitted via: FreeRIP 2.945 
#
DISCID=78120918
DTITLE=Murphy-P2001 - Wild-Angel5
DYEAR=2001
DGENRE=Jungle
TTITLE0=WA 501
TTITLE1=WA 502
TTITLE2=WA 503
TTITLE3=WA 504
TTITLE4=WA 505
TTITLE5=WA 506
TTITLE6=WA 507
TTITLE7=WA 508
TTITLE8=WA 509
TTITLE9=WA 510
TTITLE10=WA 511
TTITLE11=WA 512
TTITLE12=WA 513
TTITLE13=WA 514
TTITLE14=WA 515
TTITLE15=WA 516
TTITLE16=WA 517
TTITLE17=WA 518
TTITLE18=WA 519
TTITLE19=WA 520
TTITLE20=WA 521
TTITLE21=WA 522
TTITLE22=WA 523
TTITLE23=WA 524
EXTD=Wild Angel by Pat (Patrice) Murphy 9 CDs\nread by Bernadette Dunne Blackstone Audio\njungle country
EXTT0=
EXTT1=
EXTT2=
EXTT3=
EXTT4=
EXTT5=
EXTT6=
EXTT7=
EXTT8=
EXTT9=
EXTT10=
EXTT11=
EXTT12=
EXTT13=
EXTT14=
EXTT15=
EXTT16=
EXTT17=
EXTT18=
EXTT19=
EXTT20=
EXTT21=
EXTT22=
EXTT23=
PLAYORDER=
